<?xml version="1.0" encoding="utf-8"?>
<!-- Generator: Adobe Illustrator 16.0.0, SVG Export Plug-In . SVG Version: 6.00 Build 0)  -->
<!DOCTYPE svg PUBLIC "-//W3C//DTD SVG 1.1//EN" "http://www.w3.org/Graphics/SVG/1.1/DTD/svg11.dtd">
<svg version="1.1" id="Layer_1" xmlns="http://www.w3.org/2000/svg" xmlns:xlink="http://www.w3.org/1999/xlink" x="0px" y="0px"
	 width="612px" height="792px" viewBox="0 0 612 792" enable-background="new 0 0 612 792" xml:space="preserve">
<g>
	<path fill="#FFFFFF" d="M285.517,376.803h9.936v58.418h13.155v9.199h-23.091V376.803z"/>
	<path fill="#FFFFFF" d="M377.882,444.42v-67.617h8.739c5.888,0,10.487,1.104,13.523,3.957c3.036,2.852,4.6,7.268,4.6,13.982
		c0,3.221-0.275,5.611-1.288,7.82c-1.012,2.207-2.575,4.047-4.875,6.163c2.483,1.38,4.323,3.956,5.795,8.28
		c0.736,2.115,1.104,4.875,1.104,8.279c0,5.06-0.92,9.567-3.22,13.062c-2.3,3.496-6.256,5.797-12.144,6.072H377.882z
		 M387.817,404.678c0.828,0,2.76,0.092,4.416-1.012c1.655-1.104,2.943-3.312,2.943-8.004s-1.288-6.899-2.943-8.004
		c-1.656-1.104-3.588-1.012-4.416-1.012V404.678z M387.817,434.576c0.828,0,2.76,0.184,4.416-1.012
		c1.655-1.195,2.943-3.863,2.943-9.383c0-5.521-1.288-8.188-2.943-9.385c-1.656-1.195-3.588-1.012-4.416-1.012V434.576z"/>
	<path fill="#FFFFFF" d="M428.389,394.926c0-2.207-0.092-4.691-0.735-6.623c-0.645-1.84-1.656-3.128-3.22-3.128
		c-2.576,0.093-3.404,2.761-3.404,6.716c0,2.3,1.012,4.691,2.483,7.268c1.473,2.576,3.404,5.244,5.336,8.096
		c2.3,3.404,4.6,6.899,6.348,10.303c1.748,3.404,2.944,6.9,2.944,10.58c0,4.508-0.736,8.74-2.853,11.867
		c-2.115,3.128-5.52,5.152-10.947,5.152c-6.348,0-9.936-2.393-11.959-6.072c-2.024-3.68-2.484-8.555-2.484-13.615l9.752-0.92
		c0,2.852,0.092,5.703,0.828,7.82c0.644,2.207,1.748,3.68,3.863,3.68c2.944,0,4.048-3.129,4.048-7.452
		c0-2.208-1.104-4.784-2.575-7.452c-0.828-1.287-1.656-2.668-2.576-4.047c-1.932-2.76-4.048-5.889-6.256-9.292
		s-3.863-6.899-4.876-10.487c-0.552-1.748-0.828-3.588-0.828-5.428c0-3.68,0.828-7.636,2.944-10.672
		c2.116-2.943,5.336-5.059,10.027-5.151c5.979-0.092,9.476,2.392,11.407,5.979c1.933,3.68,2.484,8.188,2.484,11.959L428.389,394.926
		z"/>
</g>
<g>
	<circle fill="#F58220" cx="219.575" cy="410.152" r="45.027"/>
	<path fill="#FFFFFF" d="M229.806,411.071c-2.231,0-4.376,0.429-6.007,1.716c-1.115-7.379,1.246-12.113,8.394-12.113
		c5.065,0,6.833,3.619,10.264,3.619c2.06,0,2.575-1.631,2.403-3.089h8.049c0.943,4.976-1.03,8.323-4.891,11.241l-9.205,7.365
		c1.889,0.772,3.542,1.042,5.516,1.042c2.317,0,4.719-0.6,6.95-2.573c1.63,9.525-2.917,13.472-8.495,13.472
		c-5.771,0-5.837-4.377-9.441-4.377c-2.059,0-2.574,1.546-2.402,3.089h-8.75c-0.943-5.062,1.03-8.322,4.892-11.24l9.438-7.121
		C235.062,411.414,231.522,411.071,229.806,411.071z M221.363,422.018c-0.349,0.062-0.733,0.106-1.129,0.106
		c-0.917,0-1.667-0.668-1.667-1.751c0-2.332,2.115-7.742,2.115-11.326c0-5.082-2.448-8.499-8.114-8.499
		c-2.917,0-7.004,0.894-9.004,3.894l3.937-22.762l-11.634,2.035l-8.079,46.166h11.197l2.308-12.68
		c0.917-5.165,2.833-6.582,4.833-6.582c1.667,0,2.833,1.083,2.833,2.749c0,4.001-2.224,6.929-2.224,10.679
		c0,4.75,3.333,6.416,7.249,6.416c2.091,0,3.974,0,5.451,0C218.778,426.938,219.539,424.289,221.363,422.018z"/>
</g>
<path fill="#FFFFFF" d="M343.097,451.387c-15.275,0-31.716-3.41-31.716-10.896c0-0.324,0.061-0.646,0.178-0.947l19.807-50.634
	v-11.531h5.199V389.4c0,0.324-0.061,0.646-0.179,0.947l-19.7,50.367c1.101,1.686,9.844,5.471,26.411,5.471
	c16.526,0,25.267-3.766,26.406-5.486l-19.694-50.352c-0.118-0.302-0.179-0.623-0.179-0.947v-12.021h5.199v11.531l19.806,50.634
	c0.118,0.302,0.179,0.623,0.179,0.947C374.813,447.977,358.373,451.387,343.097,451.387z"/>
<ellipse fill="#FFFFFF" cx="343.08" cy="377.57" rx="11.724" ry="3.281"/>
<rect x="332.522" y="357.09" fill="#F58220" width="10.632" height="10.631"/>
<rect x="343.154" y="346.459" fill="#F58220" width="10.63" height="10.631"/>
<rect x="321.892" y="335.845" fill="#F58220" width="10.631" height="10.632"/>
<path fill="#F58220" d="M354.513,412.213c-5.818,2.001-12.375,1.763-16.998,1.172l-1.146,3.062h3.445
	c0.529,0,0.957,0.428,0.957,0.956c0,0.529-0.428,0.957-0.957,0.957h-3.809c-0.117,0-0.226-0.028-0.328-0.066l-0.743,1.983h2.965
	c0.529,0,0.957,0.428,0.957,0.957c0,0.528-0.428,0.956-0.957,0.956h-3.681l-0.743,1.985h2.932c0.529,0,0.957,0.429,0.957,0.957
	s-0.428,0.957-0.957,0.957h-3.648l-0.717,1.917h2.45c0.528,0,0.957,0.429,0.957,0.956c0,0.528-0.429,0.957-0.957,0.957h-3.167
	l-1.076,2.877c-0.216,0.575-0.764,0.932-1.345,0.932c-0.167,0-0.337-0.029-0.503-0.091c-0.742-0.278-1.119-1.105-0.842-1.849
	l7.059-18.854c-1.939-0.355-3.127-0.685-3.127-0.685l-9.791,26.521c0,0,21.441,8.28,42.882,0
	C364.581,438.483,364.581,438.771,354.513,412.213z"/>
</svg>
